<svg xmlns="http://www.w3.org/2000/svg" width="28.665" height="14.29" viewBox="0 0 28.665 14.29">
  <g>
    <path fill="rgb(0,0,0)" fill-rule="evenodd" d="M26.8734436 4.46569824h.89578247c.49475098 0 .89578247.39984131.89578247.89312744v3.5725708c0 .49328614-.40103149.89312745-.89578247.89312745h-.89578247v.89312744c0 .49328613-.4010315.89312744-.89578247.89312744h-.89578247v.89312744c0 .98651123-.80210876 1.78631592-1.79156494 1.78631592H1.79156494C.80210876 14.29022217 0 13.49041748 0 12.50390625V1.78625488C0 .79974365.80210876 0 1.79156494 0h21.49874878c.98945618 0 1.79156494.79974365 1.79156494 1.78625488v.89312744h.89578247c.49475098 0 .89578247.39990235.89578247.89318848v.89312744zm-3.58312988 8.03826905V1.78631592H1.79156494v10.71765137h21.49874878z"/>
    <rect width="1.792" height="7.145" x="3.583" y="3.573" fill="rgb(0,0,0)" rx="0" ry="0"/>
    <rect width="1.792" height="7.145" x="7.166" y="3.573" fill="rgb(0,0,0)" rx="0" ry="0"/>
    <rect width="1.792" height="7.145" x="10.749" y="3.573" fill="rgb(0,0,0)" rx="0" ry="0"/>
    <rect width="1.792" height="7.145" x="14.332" y="3.573" fill="rgb(0,0,0)" rx="0" ry="0"/>
  </g>
</svg>
