<svg xmlns="http://www.w3.org/2000/svg" xmlns:xlink="http://www.w3.org/1999/xlink" width="28.335" height="28.331" viewBox="0 0 28.335 28.331">
  <defs>
    <rect id="rect-1" width="28.335" height="28.331" x="0" y="0"/>
    <mask id="mask-2" maskContentUnits="userSpaceOnUse" maskUnits="userSpaceOnUse">
      <rect width="28.335" height="28.331" x="0" y="0" fill="black"/>
      <use fill="white" xlink:href="#rect-1"/>
    </mask>
  </defs>
  <g>
    <use fill="none" xlink:href="#rect-1"/>
    <g mask="url(#mask-2)">
      <path fill="rgb(0,0,0)" fill-rule="evenodd" d="M28.33499073 9.1438506h-3.85217286l-2.97639465-3.87335206h-8.14752579L10.3825066 9.1438506H8.3339188v-.44281005c0-1.37298584-1.11718369-2.48999024-2.49037934-2.48999024S3.35315631 7.3280547 3.35315631 8.70104054v.44281005H-7.3e-7v15.82757569h12.76995087c1.2783966 1.01971435 2.89691925 1.63012695 4.65557098 1.63012695 1.75865173 0 3.37723541-.61047363 4.6555748-1.63012695h6.2538948V9.14385059zM14.17701648 6.93053271h6.5112915l1.70082093 2.21331787h-9.91293335l1.70082092-2.21331787zm-8.33347702.94049073c-.45773315 0-.83012771.37231445-.83012771.83001709v.44274902h1.66025543v-.44274902c0-.45770264-.37239838-.8300171-.83012772-.8300171zM23.618438 23.31145313h3.05630493V10.80388477H1.6602547v12.50756836h9.5724144c-.81103515-1.19537353-1.28536987-2.63677978-1.28536987-4.18695068 0-4.1229248 3.35476303-7.47711182 7.47828293-7.47711182 4.12351226 0 7.47822189 3.35418702 7.47822189 7.47711182 0 1.5501709-.47433472 2.99157715-1.28536606 4.18695068zm-6.19285965 1.63012696c-3.20805359 0-5.8180275-2.60961914-5.8180275-5.81713867 0-3.20751954 2.60997391-5.81707764 5.8180275-5.81707764 3.20804978 0 5.81797028 2.6095581 5.81797028 5.81707764 0 3.20751953-2.60997391 5.81713867-5.81797028 5.81713867z"/>
      <path fill="rgb(0,0,0)" fill-rule="evenodd" d="M13.27494358 19.1542876c0-2.28833007 1.8619728-4.1500244 4.15063476-4.1500244 2.28865814 0 4.15063095 1.86169433 4.15063095 4.1500244 0 2.28833008-1.8619728 4.15002442-4.15063095 4.15002442-2.28866195 0-4.15063476-1.86169434-4.15063476-4.15002441zm1.66025543-.00006103c0 1.37298584 1.11718368 2.49005127 2.49037933 2.49005127 1.37319565 0 2.49038315-1.11706543 2.49038315-2.49005127s-1.1171875-2.48999023-2.49038315-2.48999023-2.49037933 1.1170044-2.49037933 2.48999023z"/>
      <path fill="rgb(0,0,0)" fill-rule="evenodd" d="M4.99708654 1.72917344h1.66025357v2.54523263H4.99708654V1.72917344z"/>
      <path fill="rgb(0,0,0)" fill-rule="evenodd" d="M7.04891435 4.46276288l1.80001862-1.80001963 1.17380219 1.17380152L8.22271654 5.6365644 7.04891435 4.46276288z"/>
      <path fill="rgb(0,0,0)" fill-rule="evenodd" d="M1.62963027 3.83614457l1.17397623-1.1739769L4.60331914 4.4618793 3.4293429 5.6358562 1.62963027 3.83614456z"/>
      <path fill="rgb(0,0,0)" fill-rule="evenodd" d="M8.3175919 14.17925099c0 1.36395263-1.10987855 2.47369384-2.47405244 2.47369384-1.3642311 0-2.47405624-1.1097412-2.47405624-2.47369384 0-1.36395264 1.10987854-2.47369385 2.47405624-2.47369385 1.3641739 0 2.47405243 1.1097412 2.47405243 2.47369385zm-1.66025163-.00006104c0-.4486084-.36508941-.81365967-.8138008-.81365967-.4487648 0-.81380082.36505127-.81380082.81365967 0 .44866943.36508942.8137207.81380081.8137207.4487114 0 .81380081-.36505127.81380081-.8137207z"/>
    </g>
  </g>
</svg>
