<svg id="Capa_1" enable-background="new 0 0 512 512" height="512" viewBox="0 0 512 512" width="512" xmlns="http://www.w3.org/2000/svg"><g><path d="m288.765 188.45 25.844-25.844c5.858-5.858 5.858-15.355 0-21.213-5.857-5.858-15.355-5.858-21.213 0l-25.844 25.844c-55.054-55.054-107.35-107.35-113.843-113.844-5.854-5.854-15.357-5.857-21.213 0-61.491 61.49-71.367 153.198-32.118 225.167-6.838 8.9-11.011 19.94-11.337 31.928l-31.82 183.955c-1.586 9.173 5.487 17.557 14.781 17.557h144c9.307 0 16.364-8.398 14.781-17.556-2.056-11.887-19.644-113.587-21.632-125.082 68.292 22.503 142.744 4.859 193.458-45.855 5.854-5.853 5.858-15.356 0-21.213-6.494-6.494-58.79-58.79-113.844-113.844zm-144.763 148.55c-13.785 0-25-11.215-25-25s11.215-25 25-25 25 11.215 25 25-11.215 25-25 25zm-54.183 145 21.731-125.631c19.146 14.041 45.389 14.314 64.907-.002 2.279 13.175 19.569 113.152 21.728 125.634h-108.366zm113.387-147.001c-.512-2.957-3.738-21.593-4.243-24.51-1.02-37.54-38.876-63.266-74.228-49.998-29.466-57.144-22.063-125.547 18.854-174.791 42.056 42.057 184.656 184.656 226.712 226.712-47.064 39.111-111.61 47.62-167.095 22.587z"/><path d="m361.002 144c0 8.284 6.716 15 15 15s15-6.716 15-15c0-43.561-35.439-79-79-79-8.284 0-15 6.716-15 15s6.716 15 15 15c27.018 0 49 21.981 49 49z"/><path d="m312.002 0c-8.284 0-15 6.716-15 15s6.716 15 15 15c62.309 0 113 51.14 113 114 0 8.284 6.716 15 15 15s15-6.716 15-15c0-79.402-64.15-144-143-144z"/></g></svg>