<svg height="512pt" viewBox="0 0 512 512" width="512pt" xmlns="http://www.w3.org/2000/svg"><path d="m165.160156 445.933594c0 9.125-7.394531 16.519531-16.515625 16.519531-9.121093 0-16.515625-7.394531-16.515625-16.519531 0-9.121094 7.394532-16.515625 16.515625-16.515625 9.121094 0 16.515625 7.394531 16.515625 16.515625zm0 0"/><path d="m453.855469 247.742188h-156.566407v-191.695313c0-30.902344-25.144531-56.046875-56.046874-56.046875h-185.195313c-30.902344 0-56.046875 25.144531-56.046875 56.046875v399.902344c0 30.90625 25.144531 56.050781 56.046875 56.050781h397.808594c32.0625 0 58.144531-26.082031 58.144531-58.144531v-147.96875c0-32.0625-26.082031-58.144531-58.144531-58.144531zm-397.808594-214.710938h185.195313c12.691406 0 23.015624 10.324219 23.015624 23.015625v323.824219h-231.226562v-323.824219c0-12.691406 10.324219-23.015625 23.015625-23.015625zm175.179687 445.9375h-175.179687c-12.691406 0-23.015625-10.324219-23.015625-23.015625v-43.050781h231.226562v43.050781c0 12.691406-10.324218 23.015625-23.015624 23.015625zm247.742188-25.113281c0 13.855469-11.265625 25.113281-25.113281 25.113281h-161.640625c3.195312-7.042969 5.074218-14.796875 5.074218-23.015625v-175.179687h156.566407c13.847656 0 25.113281 11.257812 25.113281 25.113281zm0 0"/><path d="m66.066406 132.128906c-4.226562 0-8.453125-1.613281-11.679687-4.839844-6.449219-6.449218-6.449219-16.902343 0-23.351562l49.550781-49.550781c6.449219-6.449219 16.902344-6.449219 23.351562 0 6.449219 6.453125 6.453126 16.90625 0 23.355469l-49.546874 49.546874c-3.226563 3.226563-7.453126 4.839844-11.675782 4.839844zm0 0"/></svg>