<svg xmlns="http://www.w3.org/2000/svg" xmlns:xlink="http://www.w3.org/1999/xlink" width="300" zoomAndPan="magnify" viewBox="0 0 224.87999 225" height="300" preserveAspectRatio="xMidYMid meet" version="1.0"><defs><clipPath id="7f9980e8c8"><path d="M 0 0.0585938 L 224.761719 0.0585938 L 224.761719 224.9375 L 0 224.9375 Z M 0 0.0585938 " clip-rule="nonzero"/></clipPath><clipPath id="7c3f2451d2"><path d="M 112.019531 71 L 224.761719 71 L 224.761719 210.183594 L 112.019531 210.183594 Z M 112.019531 71 " clip-rule="nonzero"/></clipPath><clipPath id="3e3c3eac70"><path d="M 112.019531 14.753906 L 224.761719 14.753906 L 224.761719 155.679688 L 112.019531 155.679688 Z M 112.019531 14.753906 " clip-rule="nonzero"/></clipPath><clipPath id="d4615bb72e"><path d="M 41.554688 108.105469 L 112.621094 108.105469 L 112.621094 210.183594 L 41.554688 210.183594 Z M 41.554688 108.105469 " clip-rule="nonzero"/></clipPath></defs><g clip-path="url(#7f9980e8c8)"><path fill="#ffffff" d="M 0 0.0585938 L 224.878906 0.0585938 L 224.878906 224.941406 L 0 224.941406 Z M 0 0.0585938 " fill-opacity="1" fill-rule="nonzero"/><path fill="#ffffff" d="M 0 0.0585938 L 224.878906 0.0585938 L 224.878906 224.941406 L 0 224.941406 Z M 0 0.0585938 " fill-opacity="1" fill-rule="nonzero"/></g><g clip-path="url(#7c3f2451d2)"><path fill="#286291" d="M 194.351562 199.390625 L 194.351562 136.808594 L 112.453125 210.230469 L 112.453125 171.945312 L 224.90625 71.125 L 224.90625 199.390625 L 194.351562 199.390625 " fill-opacity="1" fill-rule="nonzero"/></g><g clip-path="url(#3e3c3eac70)"><path fill="#52ace4" d="M 224.90625 53.042969 L 112.453125 155.386719 L 112.453125 117.101562 L 224.90625 14.757812 L 224.90625 53.042969 " fill-opacity="1" fill-rule="nonzero"/></g><path fill="#286291" d="M 30.558594 199.390625 L 30.558594 81.960938 L 112.453125 155.386719 L 112.453125 117.101562 L 0 16.28125 L 0 199.390625 L 30.558594 199.390625 " fill-opacity="1" fill-rule="nonzero"/><g clip-path="url(#d4615bb72e)"><path fill="#52ace4" d="M 41.734375 146.828125 L 41.734375 108.542969 L 112.453125 171.945312 L 112.453125 210.230469 L 41.734375 146.828125 " fill-opacity="1" fill-rule="nonzero"/></g></svg>