<svg xmlns="http://www.w3.org/2000/svg" xmlns:xlink="http://www.w3.org/1999/xlink" width="24" height="24" viewBox="0 0 24 24">
  <defs>
    <rect id="rect-1" width="24" height="24" x="0" y="0"/>
    <mask id="mask-2" maskContentUnits="userSpaceOnUse" maskUnits="userSpaceOnUse">
      <rect width="24" height="24" x="0" y="0" fill="black"/>
      <use fill="white" xlink:href="#rect-1"/>
    </mask>
  </defs>
  <g>
    <use fill="none" xlink:href="#rect-1"/>
    <g mask="url(#mask-2)">
      <path fill="rgb(0,0,0)" fill-rule="evenodd" d="M20.4375 9.890625c.3883133 0 .703125-.31481934.703125-.703125V.703125C21.140625.31481934 20.8258133 0 20.4375 0H7.78125c-.18647003 0-.36529541.07409668-.49715424.20599365l-4.21875381 4.21875c-.13185883.13183594-.20596695.31066895-.20596695.49713135V9.1875c0 .38830566.3148117.703125.703125.703125h.703125v1.40625H3.5625c-.3883133 0-.703125.31481934-.703125.703125v11.296875c0 .38830566.3148117.703125.703125.703125h16.875c.3883133 0 .703125-.31481934.703125-.703125V12c0-.38830566-.3148117-.703125-.703125-.703125h-.703125v-1.40625h.703125zm-.703125 2.8125h-.703125c-.3883133 0-.703125-.31481934-.703125-.703125V9.1875c0-.38830566.3148117-.703125.703125-.703125h.703125V1.40625H8.07248306L4.265625 5.21313477V8.484375h.703125c.3883133 0 .703125.31481934.703125.703125V12c0 .38830566-.3148117.703125-.703125.703125h-.703125v9.890625h1.40625v-7.734375c0-.38830566.3148117-.703125.703125-.703125h11.25c.3883133 0 .703125.31481934.703125.703125v7.734375h1.40625v-9.890625zm-2.8125 9.890625h-9.84375V15.5625h9.84375v7.03125z"/>
      <path fill="rgb(0,0,0)" fill-rule="evenodd" d="M18.328125 3.515625c0-.3883125-.3148125-.703125-.703125-.703125s-.703125.3148125-.703125.703125V6.375c0 .3883125.3148125.703125.703125.703125s.703125-.3148125.703125-.703125V3.515625z"/>
      <path fill="rgb(0,0,0)" fill-rule="evenodd" d="M14.8125 2.8125c-.3883125 0-.703125.3148125-.703125.703125V6.375c0 .3883125.3148125.703125.703125.703125s.703125-.3148125.703125-.703125V3.515625c0-.3883125-.3148125-.703125-.703125-.703125z"/>
      <path fill="rgb(0,0,0)" fill-rule="evenodd" d="M12 2.8125c-.3883125 0-.703125.3148125-.703125.703125V6.375c0 .3883125.3148125.703125.703125.703125s.703125-.3148125.703125-.703125V3.515625c0-.3883125-.3148125-.703125-.703125-.703125z"/>
      <path fill="rgb(0,0,0)" fill-rule="evenodd" d="M9.1875 2.8125c-.3883125 0-.703125.3148125-.703125.703125V6.375c0 .3883125.3148125.703125.703125.703125s.703125-.3148125.703125-.703125V3.515625c0-.3883125-.3148125-.703125-.703125-.703125z"/>
      <path fill="rgb(0,0,0)" fill-rule="evenodd" d="M9.1875 18.375h5.625c.3883125 0 .703125-.3148125.703125-.703125s-.3148125-.703125-.703125-.703125h-5.625c-.3883125 0-.703125.3148125-.703125.703125s.3148125.703125.703125.703125z"/>
      <path fill="rgb(0,0,0)" fill-rule="evenodd" d="M9.1875 21.1875h5.625c.3883125 0 .703125-.3148125.703125-.703125s-.3148125-.703125-.703125-.703125h-5.625c-.3883125 0-.703125.3148125-.703125.703125s.3148125.703125.703125.703125z"/>
    </g>
  </g>
</svg>
