<svg xmlns="http://www.w3.org/2000/svg" width="25" height="25" viewBox="0 0 25 25">
  <g>
    <g>
      <path fill="rgb(0,0,0)" fill-rule="evenodd" d="M25 5.90229033V4.43744658h-2.97145845V2.97145845h-1.46598813V0h-1.46484375v2.97145845h-1.46732334V0h-1.46484375v2.97145845h-1.46713252V0H13.2335663v2.97145845h-1.46713262V0h-1.46484375v2.97145845H8.83445742V0H7.36961367v2.97145845H5.90229033V0H4.43744658v2.97145845H2.97145845v1.46598813H0v1.46484375h2.97145845v1.46732334H0v1.46484375h2.97145845v1.46713252H0v1.46484375h2.97145845v1.46713262H0v1.46484375h2.97145845v1.46713252H0v1.46484375h2.97145845v1.46732334H0v1.46484375h2.97145845v1.46598813h1.46598813V25h1.46484375v-2.97145845h1.46732334V25h1.46484375v-2.97145845h1.46713252V25h1.46484375v-2.97145845h1.46713262V25h1.46484375v-2.97145845h1.46713252V25h1.46484375v-2.97145845h1.46732334V25h1.46484375v-2.97145845h1.46598813v-1.46598813H25v-1.46484375h-2.97145845v-1.46732334H25v-1.46484375h-2.97145845v-1.46713252H25V13.2335663h-2.97145845v-1.46713262H25v-1.46484375h-2.97145845V8.83445742H25V7.36961367h-2.97145845V5.90229033H25z"/>
      <path fill="rgb(255,255,255)" fill-rule="evenodd" d="M20.5636978 20.5636978H4.4363022V4.4363022h16.1273956v16.1273956z"/>
    </g>
    <g>
      <path fill="rgb(0,0,0)" fill-rule="evenodd" d="M16.5135938 8.35131735H8.42729123v8.01340277h8.08630257V8.35131735z"/>
      <path fill="rgb(255,255,255)" fill-rule="evenodd" d="M15.05221382 14.9165148h-5.1635426V9.79952267h5.1635426v5.11699213z"/>
    </g>
  </g>
</svg>
